<svg height="512" viewBox="0 0 512 512" width="512" xmlns="http://www.w3.org/2000/svg"><g><g><rect fill="#1e81ce" height="208" rx="16" width="304" x="24" y="152"/><path d="m216 392h-80l8-32h64z" fill="#e0e0e2"/><path d="m360 200h128v160h-128z" fill="#e0e0e2"/><path d="m360 120h128v80h-128z" fill="#57565c"/><path d="m360 360h128v32h-128z" fill="#57565c"/><path d="m384 144h80v32h-80z" fill="#ffda44"/></g><g><path d="m496 384v-264a8 8 0 0 0 -8-8h-128a8 8 0 0 0 -8 8v264h-129.75l-4-16h93.75a24.032 24.032 0 0 0 24-24v-176a24.032 24.032 0 0 0 -24-24h-272a24.032 24.032 0 0 0 -24 24v176a24.032 24.032 0 0 0 24 24h93.75l-4 16h-113.75a8 8 0 0 0 0 16h480a8 8 0 0 0 0-16zm-349.75 0 4-16h51.5l4 16zm-106.25-32a8.011 8.011 0 0 1 -8-8v-176a8.011 8.011 0 0 1 8-8h272a8.011 8.011 0 0 1 8 8v176a8.011 8.011 0 0 1 -8 8zm440 32h-112v-16h112zm0-32h-112v-144h112zm0-160h-112v-64h112z"/><path d="m464 136h-80a8 8 0 0 0 -8 8v32a8 8 0 0 0 8 8h80a8 8 0 0 0 8-8v-32a8 8 0 0 0 -8-8zm-8 32h-64v-16h64z"/><circle cx="464" cy="224" r="8"/><circle cx="440" cy="224" r="8"/><path d="m96 328h-48a8 8 0 0 0 0 16h48a8 8 0 0 0 0-16z"/><path d="m128 328h-8a8 8 0 0 0 0 16h8a8 8 0 0 0 0-16z"/></g></g></svg>